<svg width="103" height="145" viewBox="0 0 103 145" fill="none" xmlns="http://www.w3.org/2000/svg">
<path d="M102.148 118.848V144.238H2.92969V122.754L48.6328 74.707C52.6693 70.0846 55.9245 65.9505 58.3984 62.3047C60.8724 58.5938 62.6628 55.2409 63.7695 52.2461C64.9414 49.2513 65.5273 46.5495 65.5273 44.1406C65.5273 40.0391 64.9089 36.6211 63.6719 33.8867C62.5 31.0872 60.7422 28.9714 58.3984 27.5391C56.1198 26.1068 53.2878 25.3906 49.9023 25.3906C46.5169 25.3906 43.5547 26.3672 41.0156 28.3203C38.4766 30.2734 36.4909 32.9427 35.0586 36.3281C33.6914 39.7135 33.0078 43.5221 33.0078 47.7539H0C0 39.0299 2.11589 31.0547 6.34766 23.8281C10.6445 16.6016 16.6016 10.8398 24.2188 6.54297C31.8359 2.18099 40.6576 0 50.6836 0C61.1654 0 69.9544 1.6276 77.0508 4.88281C84.1471 8.13802 89.4857 12.8581 93.0664 19.043C96.7122 25.1628 98.5352 32.5521 98.5352 41.2109C98.5352 46.1589 97.7539 50.9115 96.1914 55.4688C94.6289 60.026 92.3828 64.5508 89.4531 69.043C86.5234 73.4701 82.9427 78.0273 78.7109 82.7148C74.5443 87.4023 69.7917 92.3828 64.4531 97.6562L46.0938 118.848H102.148Z" fill="#F2F2F2"/>
</svg>
